# xmcd CD database file
#
# Track frame offsets:
#	150
#	14436
#	33710
#	53846
#	72568
#	89766
#	112721
#	130287
#	143582
#	160980
#
# Disc length: 2399 seconds
#
# Revision: 0
# Processed by: cddbd v1.5.2PL0 Copyright (c) Steve Scherf et al.
# Submitted via: CDex 1.79
#
DISCID=8b095d0a
DTITLE=JEHAN BARBUR - UYAN
DYEAR=1900
DGENRE=Jazz
TTITLE0=GIDERSEN
TTITLE1=LEYLA
TTITLE2=UYAN
TTITLE3=YOLUMA CIKMA
TTITLE4=TESADUF
TTITLE5=GEC KALMIS SERMIN'IN YERI
TTITLE6=OYLESINE
TTITLE7=HER GORUSTE YENIDEN ASK
TTITLE8=NEDEN
TTITLE9=BIRAZ SENINLE BIRAZ KENDIMLE
EXTD=
EXTT0=
EXTT1=
EXTT2=
EXTT3=
EXTT4=
EXTT5=
EXTT6=
EXTT7=
EXTT8=
EXTT9=
PLAYORDER=
